<svg width="207" height="71" viewBox="0 0 207 71" fill="none" xmlns="http://www.w3.org/2000/svg">
<path d="M37.366 4.907V53H31.087V31.196H6.592V53H0.313V4.907H6.592V26.021H31.087V4.907H37.366ZM64.5784 53.621C61.0364 53.621 57.8164 52.816 54.9184 51.206C52.0664 49.596 49.8124 47.319 48.1564 44.375C46.5464 41.385 45.7414 37.935 45.7414 34.025C45.7414 30.161 46.5694 26.757 48.2254 23.813C49.9274 20.823 52.2274 18.546 55.1254 16.982C58.0234 15.372 61.2664 14.567 64.8544 14.567C68.4424 14.567 71.6854 15.372 74.5834 16.982C77.4814 18.546 79.7584 20.8 81.4144 23.744C83.1164 26.688 83.9674 30.115 83.9674 34.025C83.9674 37.935 83.0934 41.385 81.3454 44.375C79.6434 47.319 77.3204 49.596 74.3764 51.206C71.4324 52.816 68.1664 53.621 64.5784 53.621ZM64.5784 48.101C66.8324 48.101 68.9484 47.572 70.9264 46.514C72.9044 45.456 74.4914 43.869 75.6874 41.753C76.9294 39.637 77.5504 37.061 77.5504 34.025C77.5504 30.989 76.9524 28.413 75.7564 26.297C74.5604 24.181 72.9964 22.617 71.0644 21.605C69.1324 20.547 67.0394 20.018 64.7854 20.018C62.4854 20.018 60.3694 20.547 58.4374 21.605C56.5514 22.617 55.0334 24.181 53.8834 26.297C52.7334 28.413 52.1584 30.989 52.1584 34.025C52.1584 37.107 52.7104 39.706 53.8144 41.822C54.9644 43.938 56.4824 45.525 58.3684 46.583C60.2544 47.595 62.3244 48.101 64.5784 48.101ZM99.8822 20.363V42.65C99.8822 44.49 100.273 45.801 101.055 46.583C101.837 47.319 103.194 47.687 105.126 47.687H109.749V53H104.091C100.595 53 97.9732 52.195 96.2252 50.585C94.4772 48.975 93.6032 46.33 93.6032 42.65V20.363H88.7042V15.188H93.6032V5.666H99.8822V15.188H109.749V20.363H99.8822ZM123.636 1.94V53H117.357V1.94H123.636ZM137.58 9.047C136.384 9.047 135.372 8.633 134.544 7.805C133.716 6.977 133.302 5.965 133.302 4.769C133.302 3.573 133.716 2.561 134.544 1.733C135.372 0.904998 136.384 0.490997 137.58 0.490997C138.73 0.490997 139.696 0.904998 140.478 1.733C141.306 2.561 141.72 3.573 141.72 4.769C141.72 5.965 141.306 6.977 140.478 7.805C139.696 8.633 138.73 9.047 137.58 9.047ZM140.616 15.188V53H134.337V15.188H140.616ZM166.705 20.363H158.77V53H152.491V20.363H147.592V15.188H152.491V12.497C152.491 8.265 153.572 5.183 155.734 3.251C157.942 1.273 161.461 0.283996 166.291 0.283996V5.528C163.531 5.528 161.576 6.08 160.426 7.184C159.322 8.242 158.77 10.013 158.77 12.497V15.188H166.705V20.363ZM206.594 15.188L183.824 70.802H177.338L184.79 52.586L169.541 15.188H176.51L188.378 45.824L200.108 15.188H206.594Z" fill="white"/>
</svg>
